<?xml version="1.0" standalone="no"?>
<!DOCTYPE svg PUBLIC "-//W3C//DTD SVG 20010904//EN"
 "http://www.w3.org/TR/2001/REC-SVG-20010904/DTD/svg10.dtd">
<svg version="1.0" xmlns="http://www.w3.org/2000/svg"
 width="1024.000000pt" height="1024.000000pt" viewBox="0 0 1024.000000 1024.000000"
 preserveAspectRatio="xMidYMid meet">
<metadata>
Created by potrace 1.14, written by Peter Selinger 2001-2017
</metadata>
<g transform="translate(0.000000,1024.000000) scale(0.100000,-0.100000)"
fill="#000000" stroke="none">
<path d="M4904 9532 c9 -15 -15 -21 -41 -11 -13 5 -23 5 -23 -1 0 -5 -12 -5
-29 0 -21 6 -35 4 -52 -8 -13 -9 -19 -10 -15 -3 10 15 -35 12 -46 -4 -5 -6 -8
-5 -8 2 0 7 -6 10 -12 8 -7 -3 -40 -7 -74 -8 -33 -2 -66 -7 -72 -11 -7 -4 -12
-2 -12 6 0 9 -2 10 -8 2 -4 -7 -23 -13 -42 -15 -19 -2 -38 -8 -42 -14 -5 -6
-8 -5 -8 3 0 10 -5 10 -20 2 -11 -6 -25 -8 -30 -5 -5 3 -11 1 -14 -4 -4 -5
-17 -8 -31 -7 -15 2 -22 -1 -18 -7 4 -7 0 -8 -12 -4 -9 4 -24 2 -31 -4 -8 -6
-14 -8 -14 -4 0 4 -8 1 -17 -6 -14 -12 -15 -12 -9 -1 7 11 4 12 -13 3 -12 -7
-26 -9 -31 -6 -6 3 -10 2 -10 -3 0 -5 -10 -8 -22 -7 -13 1 -27 0 -33 -3 -5 -3
-21 -7 -34 -8 -14 -2 -27 -8 -29 -14 -3 -8 -8 -7 -18 1 -8 6 -14 7 -14 2 0 -5
-6 -10 -12 -11 -30 -4 -63 -10 -65 -12 -3 -3 -19 -7 -34 -9 -5 0 -8 -5 -5 -9
2 -4 -11 -7 -30 -7 -19 1 -34 -1 -34 -5 0 -6 -8 -8 -50 -12 -11 -1 -20 -6 -20
-11 0 -4 -4 -5 -10 -2 -5 3 -10 1 -10 -5 0 -7 -6 -10 -14 -7 -7 3 -24 -2 -37
-11 -13 -9 -25 -16 -26 -14 -2 1 -4 2 -5 1 -2 0 -10 -2 -18 -4 -46 -12 -90
-31 -90 -38 0 -5 -4 -6 -9 -3 -5 3 -26 -2 -47 -11 -22 -9 -42 -16 -46 -15 -5
1 -8 -3 -8 -9 0 -6 -6 -9 -12 -7 -7 3 -19 -1 -26 -9 -7 -7 -22 -13 -33 -13
-11 0 -22 -6 -25 -14 -3 -8 -12 -12 -20 -9 -7 3 -17 -2 -20 -11 -3 -9 -10 -13
-15 -10 -6 3 -22 -2 -37 -12 -15 -10 -34 -19 -42 -21 -8 -1 -16 -7 -18 -13 -2
-5 -8 -8 -12 -5 -5 3 -17 -2 -27 -12 -10 -10 -27 -17 -37 -15 -11 3 -16 0 -12
-7 4 -6 2 -12 -3 -12 -6 -1 -15 -2 -21 -3 -5 0 -18 -9 -30 -18 -11 -10 -20
-15 -20 -12 0 3 -13 -4 -30 -16 -16 -12 -30 -18 -30 -13 0 4 -4 4 -8 -2 -14
-20 -56 -50 -47 -35 8 15 -33 -15 -46 -33 -3 -5 -8 -8 -10 -6 -8 4 -69 -38
-62 -44 3 -4 -3 -7 -14 -7 -11 0 -28 -9 -38 -20 -10 -11 -22 -17 -26 -14 -5 3
-9 0 -9 -5 0 -6 -7 -11 -16 -11 -8 0 -12 -4 -9 -10 3 -5 0 -10 -8 -10 -8 0
-26 -11 -41 -25 -14 -13 -30 -25 -34 -26 -4 -1 -21 -12 -38 -25 -17 -13 -36
-24 -42 -24 -7 0 -9 -7 -5 -17 4 -10 2 -14 -4 -10 -9 6 -36 -15 -105 -79 -16
-14 -28 -23 -28 -20 0 3 -22 -16 -50 -43 -27 -26 -52 -46 -55 -43 -3 3 -5 -3
-5 -12 0 -12 -5 -16 -16 -12 -8 3 -12 2 -9 -3 3 -5 -5 -17 -17 -25 -12 -9 -18
-16 -13 -17 6 0 0 -4 -13 -10 -13 -5 -21 -13 -18 -17 3 -5 -6 -14 -20 -21 -14
-6 -22 -16 -19 -21 3 -6 1 -10 -4 -10 -14 0 -51 -37 -51 -50 0 -6 -4 -9 -8 -8
-7 3 -62 -46 -62 -55 0 -3 -24 -30 -52 -60 -102 -107 -174 -196 -170 -209 1
-5 -1 -8 -5 -5 -5 2 -16 -4 -26 -15 -9 -10 -15 -18 -12 -18 3 0 -3 -8 -13 -18
-9 -10 -24 -29 -32 -42 -8 -12 -21 -29 -28 -36 -7 -8 -10 -14 -6 -14 4 0 -3
-8 -14 -19 -12 -10 -22 -23 -22 -28 0 -6 -9 -18 -20 -28 -11 -10 -18 -21 -15
-25 2 -3 -4 -12 -15 -20 -10 -7 -16 -19 -13 -27 3 -7 0 -13 -6 -13 -6 0 -16
-11 -23 -25 -6 -13 -15 -22 -20 -19 -5 3 -8 2 -7 -3 2 -15 -13 -53 -22 -53 -5
0 -9 -7 -9 -15 0 -8 -5 -15 -12 -15 -6 0 -9 -3 -5 -6 3 -4 1 -12 -6 -20 -22
-25 -32 -40 -35 -53 -1 -7 -9 -20 -17 -28 -9 -8 -13 -19 -10 -24 4 -5 1 -9 -5
-9 -9 0 -21 -22 -30 -55 -2 -5 -10 -16 -19 -23 -13 -11 -13 -12 -1 -7 13 6 13
5 0 -7 -8 -7 -16 -20 -18 -28 -2 -8 -9 -22 -17 -30 -7 -8 -18 -32 -26 -52 -7
-21 -17 -38 -22 -38 -4 0 -5 -4 -2 -10 3 -5 1 -10 -4 -10 -6 0 -10 -3 -9 -7 1
-5 -11 -35 -26 -68 -16 -33 -29 -66 -29 -72 0 -7 -4 -13 -9 -13 -5 0 -7 -4 -4
-9 4 -5 2 -11 -4 -13 -6 -2 -12 -14 -15 -27 -2 -14 -8 -27 -13 -30 -4 -3 -7
-13 -7 -21 0 -8 -6 -20 -15 -27 -8 -6 -12 -15 -8 -18 4 -4 1 -20 -8 -36 -8
-16 -11 -29 -8 -29 4 0 -2 -10 -14 -23 -17 -18 -19 -26 -10 -35 9 -9 9 -12 -1
-12 -7 0 -10 -4 -6 -9 3 -5 1 -12 -5 -16 -5 -3 -10 -15 -10 -26 0 -10 -4 -19
-9 -19 -6 0 -8 -9 -6 -20 2 -11 0 -20 -4 -20 -4 0 -8 -6 -9 -12 -3 -38 -8 -54
-19 -60 -6 -5 -9 -17 -6 -28 3 -12 0 -20 -6 -20 -7 0 -9 -5 -6 -10 4 -6 1 -18
-7 -27 -11 -14 -11 -16 2 -8 12 6 13 5 2 -6 -6 -7 -12 -21 -12 -32 0 -10 -4
-16 -8 -13 -4 2 -7 -8 -6 -22 1 -15 -4 -33 -10 -41 -9 -12 -8 -13 3 -6 11 6
12 5 5 -6 -9 -14 -14 -34 -16 -56 -1 -7 -4 -13 -8 -13 -5 0 -9 -22 -11 -73 0
-9 -4 -15 -9 -12 -6 3 -7 -1 -4 -9 3 -8 2 -21 -2 -28 -7 -12 -14 -57 -15 -101
0 -9 -3 -15 -7 -13 -4 2 -7 -21 -7 -51 0 -30 -3 -57 -8 -60 -4 -2 -5 -8 -2
-13 3 -5 2 -11 -3 -14 -4 -2 -7 -23 -6 -45 1 -23 -2 -41 -5 -41 -4 0 -6 -17
-5 -37 1 -21 -3 -48 -7 -60 -6 -16 -5 -23 4 -23 8 0 8 -3 2 -8 -6 -4 -12 -32
-13 -62 -4 -124 -3 -413 2 -418 3 -3 1 -11 -5 -19 -6 -7 -8 -13 -3 -13 11 0
12 -141 1 -157 -6 -9 -3 -11 7 -7 18 7 22 -11 6 -21 -6 -4 -8 -11 -4 -16 3 -5
8 -33 11 -62 7 -69 10 -92 13 -94 7 -7 5 -29 -3 -40 -6 -9 -4 -15 7 -19 12 -4
13 -10 6 -24 -12 -22 -13 -33 -2 -26 4 2 7 -18 6 -45 0 -27 3 -49 6 -49 4 0 7
-19 8 -42 1 -24 2 -51 3 -60 0 -10 4 -18 9 -18 5 0 8 -12 6 -27 -1 -16 2 -41
6 -58 5 -16 11 -45 14 -64 3 -19 10 -42 17 -50 10 -12 9 -13 -2 -6 -11 6 -12
5 -5 -6 5 -8 9 -17 10 -21 1 -5 3 -11 4 -15 1 -5 1 -18 0 -30 -1 -13 2 -23 7
-23 5 0 10 -17 11 -37 2 -21 7 -42 12 -47 6 -6 10 -20 10 -32 0 -13 5 -26 10
-29 6 -4 8 -11 4 -16 -3 -5 2 -21 11 -36 9 -14 12 -22 6 -19 -7 5 -9 1 -5 -8
3 -9 9 -14 13 -12 4 3 6 -7 6 -22 -1 -15 6 -36 14 -46 14 -17 14 -18 1 -12
-13 7 -13 6 0 -6 8 -7 16 -26 18 -43 2 -16 12 -45 22 -63 13 -21 15 -32 7 -32
-7 0 -8 -3 -2 -8 17 -12 36 -52 30 -62 -4 -6 -2 -10 4 -10 6 0 14 -12 17 -28
4 -15 9 -31 13 -37 3 -5 6 -17 8 -25 1 -8 7 -16 12 -18 6 -2 11 -15 11 -28 0
-13 5 -24 10 -24 6 0 10 -4 10 -9 0 -5 5 -22 12 -38 7 -15 12 -35 13 -43 0 -8
7 -14 14 -12 8 2 11 -3 8 -12 -3 -8 -3 -16 1 -18 10 -4 72 -131 72 -146 0 -7
4 -11 9 -7 12 7 24 -31 15 -47 -4 -7 -4 -10 1 -6 10 10 34 -21 35 -44 0 -10 5
-18 10 -18 6 0 10 -7 10 -15 0 -9 6 -18 14 -21 8 -3 13 -14 11 -25 -2 -11 0
-17 6 -14 5 4 9 0 9 -9 0 -8 3 -16 8 -18 4 -1 18 -24 32 -50 13 -27 28 -48 32
-48 5 0 8 -7 8 -15 0 -8 4 -15 9 -15 5 0 11 -10 15 -23 3 -13 17 -36 31 -53
14 -16 25 -34 25 -40 0 -7 7 -15 16 -18 9 -4 14 -13 10 -22 -4 -10 -2 -13 6
-8 8 5 9 2 4 -12 -5 -10 -9 -24 -9 -31 0 -7 -7 -15 -14 -17 -8 -3 -11 -10 -8
-16 4 -6 -1 -7 -11 -3 -12 4 -15 3 -10 -5 4 -7 1 -12 -7 -12 -8 0 -17 -6 -20
-13 -2 -7 -17 -13 -31 -15 -16 -1 -25 2 -21 8 3 6 -3 10 -15 10 -12 0 -27 6
-34 13 -7 6 -25 21 -40 32 -16 11 -33 25 -40 31 -6 6 -17 9 -25 6 -9 -3 -11 0
-6 8 6 9 -1 11 -29 8 -20 -2 -36 0 -36 5 0 4 -6 5 -12 0 -7 -4 -20 -8 -28 -9
-8 0 -23 -4 -33 -8 -9 -5 -26 -6 -37 -3 -11 3 -18 1 -14 -4 3 -5 2 -9 -3 -10
-51 -5 -94 -17 -111 -31 -10 -9 -13 -9 -9 -1 4 6 3 14 -3 18 -5 3 -10 1 -10
-5 0 -7 -7 -10 -15 -7 -8 4 -17 2 -19 -2 -3 -5 -17 -7 -31 -6 -14 2 -23 -1
-19 -6 3 -5 -2 -9 -10 -9 -12 0 -31 -32 -28 -50 0 -3 -5 -11 -11 -19 -10 -12
-9 -13 3 -6 13 8 13 7 1 -8 -9 -11 -10 -17 -2 -17 6 0 11 -5 11 -11 0 -5 -4
-7 -10 -4 -5 3 -10 4 -10 0 0 -11 66 -45 88 -45 12 0 22 -5 22 -10 0 -6 3 -9
8 -9 21 4 35 -4 72 -41 22 -22 43 -53 46 -70 4 -16 10 -30 14 -30 4 0 7 -15 7
-33 -1 -18 3 -39 7 -46 5 -8 4 -16 -4 -21 -7 -4 -8 -10 -3 -13 5 -4 9 -16 8
-29 -1 -13 2 -31 7 -42 7 -13 7 -16 -1 -12 -8 5 -8 0 0 -18 7 -14 15 -23 20
-21 4 3 11 1 14 -5 9 -15 38 9 31 26 -3 7 0 15 7 18 7 4 8 8 2 11 -6 3 -8 32
-7 66 3 47 7 59 18 55 7 -3 13 -1 11 3 -1 5 2 9 7 9 5 0 13 6 17 14 7 10 9 8
10 -7 l0 -20 9 20 c5 11 9 14 9 7 1 -7 6 -10 12 -6 22 13 153 11 175 -3 11 -7
24 -10 27 -6 4 3 7 -1 7 -10 0 -9 5 -17 10 -17 6 0 10 -8 10 -18 0 -10 6 -24
13 -31 10 -11 9 -13 -1 -7 -14 8 -12 -19 2 -43 6 -9 5 -12 -1 -8 -5 4 -10 -6
-10 -23 0 -18 4 -27 11 -23 6 4 5 -1 -3 -10 -7 -9 -10 -17 -5 -17 4 0 3 -5 -4
-12 -9 -9 -8 -16 6 -32 9 -11 12 -16 5 -13 -9 6 -11 -22 -11 -108 0 -64 -2
-118 -5 -122 -4 -3 -2 -14 3 -24 7 -12 6 -19 -3 -22 -8 -4 -8 -6 0 -6 6 -1 9
-10 5 -23 -4 -16 -2 -19 9 -13 12 7 12 6 1 -7 -8 -10 -9 -18 -3 -22 6 -4 8
-13 5 -20 -3 -7 4 -28 15 -47 11 -18 17 -37 14 -42 -3 -6 -1 -7 5 -3 7 4 12 3
12 -2 0 -14 110 -122 124 -122 13 0 75 -63 70 -71 -3 -5 -1 -9 3 -9 5 0 9 -9
9 -20 0 -11 -3 -20 -6 -20 -3 0 -6 -22 -6 -50 1 -27 5 -50 10 -50 5 0 7 -3 4
-6 -8 -7 36 -54 51 -54 6 0 11 -4 11 -10 0 -5 9 -10 20 -10 11 0 20 -5 20 -11
0 -7 9 -9 21 -6 11 3 22 0 25 -7 2 -6 17 -13 31 -14 15 -1 31 -6 36 -11 5 -5
16 -7 23 -4 8 3 14 1 14 -5 0 -6 8 -9 18 -7 9 1 22 0 27 -4 6 -3 21 -7 35 -9
13 -2 31 -9 39 -15 12 -10 13 -9 6 3 -8 13 -6 13 8 1 9 -7 24 -11 32 -7 8 3
15 1 15 -5 0 -6 4 -8 9 -5 5 4 12 0 14 -6 4 -10 6 -10 6 0 1 9 6 10 19 4 9 -5
34 -8 55 -8 20 1 37 -2 37 -6 0 -3 9 -4 20 -1 12 3 20 0 20 -6 0 -7 5 -9 12
-4 18 11 38 13 38 3 0 -4 10 -6 23 -6 12 1 28 -2 35 -7 8 -6 12 -5 12 3 0 8 4
9 13 3 6 -6 38 -9 70 -9 31 1 57 -2 57 -5 0 -3 7 -6 15 -6 8 0 15 5 15 11 0 5
6 1 14 -9 13 -18 13 -18 24 1 6 10 12 14 12 7 0 -8 16 -12 50 -10 28 1 50 0
50 -3 0 -3 11 -5 25 -5 14 0 25 4 25 9 0 6 5 5 11 -1 8 -8 20 -8 34 -3 13 5
26 6 29 3 3 -3 45 -5 93 -3 147 5 238 8 238 10 0 1 34 4 75 6 41 3 82 5 90 6
8 0 21 5 28 11 8 6 12 6 12 -3 0 -9 3 -10 14 -1 7 6 21 9 30 5 9 -3 16 -2 16
3 0 4 23 8 50 7 28 0 50 2 50 6 0 4 10 6 23 6 12 -1 28 2 35 7 8 6 12 5 12 -4
0 -11 2 -11 10 1 5 8 10 11 10 6 0 -5 7 -3 15 4 12 10 15 10 15 0 0 -10 3 -10
15 0 8 7 26 10 40 8 14 -3 25 -2 25 1 0 3 14 6 30 6 17 0 30 -4 30 -8 0 -5 5
-5 10 -2 6 3 10 1 10 -4 0 -6 9 -11 20 -11 11 0 20 -4 20 -8 0 -5 7 -9 15 -10
8 -1 22 -3 30 -4 8 -1 15 -5 15 -10 0 -4 13 -8 28 -8 16 0 32 -3 35 -7 4 -3
25 -7 48 -9 23 -2 48 -9 57 -16 13 -11 14 -11 7 2 -8 13 -6 13 7 2 9 -7 30
-14 47 -14 17 -1 31 -4 31 -7 0 -3 21 -7 48 -8 57 -3 73 -6 90 -16 7 -5 12 -3
12 3 0 8 6 8 21 0 11 -7 27 -9 35 -6 8 3 14 2 14 -2 0 -4 17 -7 37 -6 21 0 41
-5 45 -10 5 -7 8 -7 8 1 0 9 7 10 23 4 14 -6 30 -6 38 0 8 5 19 9 24 9 6 0 4
-4 -4 -9 -9 -6 14 -10 65 -11 43 -1 109 -2 146 -3 38 -1 68 -6 68 -11 0 -5 7
-3 15 4 12 10 15 10 15 0 0 -9 3 -10 13 -1 10 8 17 7 25 -1 9 -9 12 -9 12 3 0
11 2 11 9 1 4 -8 12 -14 16 -14 4 0 12 6 16 14 5 7 9 8 9 2 0 -12 29 -12 48 0
7 4 12 2 12 -5 0 -9 3 -9 14 0 10 8 16 9 21 1 3 -6 12 -7 18 -3 21 13 47 13
47 0 0 -8 3 -8 8 -1 7 11 13 11 123 13 45 1 58 4 53 14 -6 9 -4 9 7 1 15 -12
49 -15 49 -5 0 3 19 7 43 7 59 2 97 7 97 14 0 8 44 5 60 -5 8 -5 11 -4 7 2 -4
6 2 13 13 16 13 3 18 1 13 -6 -5 -9 -3 -9 8 -1 8 6 28 10 44 9 17 -2 36 2 44
9 8 6 16 10 18 9 8 -7 54 -2 49 5 -2 4 13 7 35 7 23 0 41 5 44 13 3 9 10 10
23 3 11 -6 24 -6 34 0 9 5 29 11 45 13 15 2 39 8 53 14 14 5 28 8 32 5 4 -2
17 1 28 7 15 8 20 8 20 -2 0 -10 2 -10 9 0 4 7 14 15 22 16 22 4 72 17 89 22
8 3 15 4 16 2 0 -2 9 4 19 12 10 8 26 14 37 12 10 -2 18 0 18 5 0 4 15 9 32
10 18 2 34 7 36 13 2 6 8 8 13 4 5 -3 9 0 9 5 0 6 9 11 19 11 11 0 23 5 26 10
4 6 11 8 16 5 5 -4 9 -1 9 5 0 7 7 10 15 7 8 -4 17 -2 20 3 4 6 20 8 36 5 22
-4 28 -2 23 6 -5 8 -3 9 7 4 7 -5 56 -9 109 -10 52 0 101 -5 109 -9 10 -6 12
-5 7 2 -9 15 -5 15 29 2 19 -7 24 -7 19 1 -5 8 -1 8 13 0 14 -7 23 -7 31 1 7
7 12 8 12 2 0 -13 53 -12 62 1 5 7 8 7 8 0 0 -6 23 -9 58 -8 119 6 140 6 151
-1 6 -4 11 -3 11 2 0 13 33 10 42 -3 5 -6 8 -5 8 4 0 8 7 11 20 8 11 -3 20 0
20 6 0 7 5 5 10 -3 9 -13 10 -13 10 0 0 13 1 13 10 0 5 -8 10 -10 10 -5 0 6
24 10 55 9 37 -1 52 3 48 10 -4 6 0 5 9 -2 12 -9 18 -10 23 -2 4 6 13 9 21 6
8 -3 14 -2 14 3 0 4 10 7 23 6 12 -1 25 3 29 9 5 8 8 7 8 -2 0 -10 5 -10 21
-2 11 6 35 12 52 12 18 0 37 5 44 10 7 5 16 7 21 4 5 -3 20 1 34 8 19 10 29
11 37 3 8 -8 11 -8 11 0 0 6 25 17 55 24 30 7 55 16 55 21 0 5 5 6 10 3 6 -3
10 -1 10 5 0 6 4 9 9 5 6 -3 26 4 45 15 20 11 38 20 41 19 3 0 13 5 23 10 9 6
13 11 9 11 -4 0 4 11 19 25 15 14 23 25 19 25 -4 0 -2 7 5 15 7 8 9 15 5 15
-4 0 -2 7 5 15 6 8 9 18 6 24 -3 5 1 11 9 15 8 3 15 13 15 22 0 10 2 15 5 12
3 -3 34 23 68 57 78 78 97 102 90 109 -4 3 -1 6 5 6 7 0 12 7 12 15 0 8 5 15
11 15 6 0 9 7 5 15 -3 8 -1 15 5 15 6 0 8 4 4 9 -3 5 2 16 10 24 9 9 12 23 8
33 -5 13 -3 16 9 11 13 -4 15 0 11 25 -3 22 -1 28 8 22 8 -5 11 -2 6 8 -3 9 0
24 6 34 7 11 12 47 12 81 0 35 4 63 10 63 6 0 3 5 -5 10 -10 6 -11 10 -3 10 9
0 10 7 3 26 -7 17 -7 23 0 19 7 -4 9 3 6 19 -3 16 0 26 7 26 8 0 7 3 -2 9 -9
6 -10 10 -2 16 9 5 9 10 0 21 -9 11 -8 15 4 20 9 3 13 12 11 19 -3 7 4 16 15
20 12 3 21 10 21 14 0 6 121 7 128 1 1 -1 7 -4 12 -5 6 -1 13 -4 18 -5 18 -6
48 3 59 17 6 8 16 12 22 8 6 -3 11 -2 11 2 0 5 11 9 25 9 14 0 25 -6 25 -14 0
-7 5 -10 11 -6 7 4 7 -1 -1 -16 -7 -12 -8 -20 -2 -16 11 7 11 -93 -1 -111 -5
-8 -3 -13 5 -13 9 0 9 -3 -2 -10 -13 -9 -13 -10 0 -10 12 0 12 -2 2 -9 -11 -6
-10 -10 5 -16 52 -24 64 -5 67 105 1 30 5 61 10 69 6 10 5 12 -2 7 -7 -4 -12
-3 -12 3 0 5 6 12 12 14 10 4 10 6 0 6 -8 1 -10 6 -5 14 4 6 8 17 10 22 2 12
10 44 15 64 4 18 51 61 66 61 6 0 12 5 14 11 2 5 12 12 23 14 11 2 22 4 25 5
3 1 8 2 13 1 4 0 7 3 7 9 0 5 9 18 21 29 12 11 16 21 10 25 -5 4 -8 15 -6 26
2 11 0 22 -5 25 -5 3 -7 14 -5 25 2 12 0 18 -6 15 -5 -4 -9 -2 -9 3 0 12 -56
33 -64 25 -3 -3 -9 2 -12 11 -5 14 -9 15 -15 4 -6 -8 -9 -9 -9 -1 0 6 -9 9
-20 6 -11 -3 -20 0 -20 6 0 7 -8 8 -26 1 -16 -7 -23 -7 -19 0 6 9 -30 15 -64
11 -7 -2 -11 2 -8 6 7 12 -84 10 -102 -1 -11 -7 -12 -6 -6 5 8 12 6 12 -8 1
-9 -8 -22 -10 -29 -6 -7 4 -10 4 -6 -1 11 -11 -20 -38 -37 -31 -8 3 -15 1 -15
-5 0 -6 -4 -7 -10 -4 -5 3 -10 2 -10 -4 0 -12 -54 -3 -58 10 -2 5 -8 7 -13 4
-5 -4 -6 2 -2 11 4 12 3 15 -5 10 -8 -4 -10 -2 -6 7 3 8 0 18 -5 22 -6 3 -8
12 -4 18 4 7 9 21 10 32 2 11 8 22 13 23 6 2 8 8 4 13 -3 5 0 9 5 9 6 0 11 7
11 15 0 8 5 15 10 15 6 0 10 7 10 15 0 8 7 15 15 15 9 0 12 6 9 15 -4 8 1 17
10 21 9 3 16 12 16 20 0 8 5 14 11 14 5 0 7 4 4 10 -3 5 -1 10 4 10 6 0 11 5
11 11 0 7 8 18 18 26 10 9 11 11 2 7 -11 -6 -10 -2 3 13 9 11 17 25 17 31 0 7
5 12 10 12 6 0 9 3 8 8 -2 4 8 24 20 44 13 21 20 43 16 50 -4 7 -4 10 1 6 9
-9 76 113 69 124 -3 5 0 8 5 8 6 0 11 7 11 15 0 8 5 15 11 15 5 0 8 4 4 9 -3
5 -1 12 5 16 6 4 8 10 5 15 -3 4 2 11 11 14 8 3 13 10 10 14 -3 5 1 18 9 28 8
10 15 27 15 37 0 9 4 17 9 17 9 0 26 48 22 64 -1 5 5 6 13 3 12 -5 13 -1 6 18
-8 20 -6 25 7 25 9 0 13 3 10 7 -4 3 -2 12 4 19 6 8 9 21 5 29 -3 8 -1 15 4
15 9 0 26 39 22 53 -1 4 3 7 10 7 6 0 8 3 5 7 -4 3 -1 13 6 21 10 13 9 14 -2
8 -10 -7 -10 -3 2 15 8 13 17 36 21 51 4 16 11 28 17 28 6 0 7 4 4 10 -3 5 1
23 10 40 8 16 13 30 9 30 -4 0 -1 7 6 15 7 8 9 15 5 15 -4 0 -2 7 5 15 7 8 10
22 6 30 -3 8 -1 15 5 15 6 0 7 5 4 10 -3 6 -2 10 4 10 5 0 8 11 5 25 -3 16 1
27 10 31 8 3 12 13 9 25 -3 10 0 25 6 32 6 8 8 17 4 20 -3 4 -2 7 3 7 5 0 10
10 11 23 1 12 4 33 6 47 2 14 5 31 6 38 0 8 6 10 14 6 9 -6 9 -5 0 8 -7 8 -10
17 -8 20 8 8 17 50 17 81 0 15 4 27 9 27 4 0 6 9 4 20 -2 11 1 22 6 25 5 4 7
11 4 16 -4 5 -3 15 1 21 5 7 10 31 12 53 2 22 7 42 10 45 4 3 7 29 7 57 0 29
5 53 10 53 6 0 3 5 -5 10 -8 5 -10 10 -5 10 6 0 11 8 12 18 6 60 6 90 0 106
-5 13 -3 17 5 13 10 -3 13 12 13 59 0 36 4 64 10 64 6 0 3 5 -5 10 -10 6 -11
10 -3 10 15 0 13 21 -2 32 -6 5 -6 8 2 8 12 0 12 17 0 37 -4 6 -1 18 7 25 12
11 12 16 -2 32 -10 11 -12 16 -5 13 8 -5 11 12 11 63 0 38 -4 67 -9 64 -17
-10 -9 9 9 22 9 7 13 14 7 14 -6 0 -10 33 -9 80 0 51 -3 80 -10 80 -6 0 -5 4
3 9 13 8 13 12 0 27 -9 11 -9 15 -1 10 8 -5 12 -1 12 13 0 11 -4 22 -8 25 -9
6 -8 48 2 64 4 7 3 12 -2 12 -6 0 -9 18 -8 40 1 22 -2 40 -8 40 -5 0 -6 3 -3
7 4 3 1 13 -6 21 -10 13 -9 15 6 9 16 -6 16 -5 1 24 -10 20 -11 28 -3 24 8 -5
10 -4 5 4 -4 6 -9 23 -12 37 -3 19 -1 24 8 18 10 -6 10 -4 -1 9 -7 9 -14 41
-15 72 0 30 -3 55 -6 55 -4 0 -7 11 -8 25 -1 14 -2 33 -3 43 -1 9 -7 23 -13
31 -9 12 -8 13 4 6 13 -7 13 -6 2 7 -7 9 -13 32 -14 52 -1 20 -4 36 -7 36 -4
0 -7 14 -8 32 0 18 -6 34 -12 36 -9 3 -9 8 -1 17 8 9 8 15 0 20 -5 3 -10 17
-10 31 0 13 -6 24 -12 24 -10 0 -9 3 1 9 9 6 10 11 2 15 -6 4 -9 12 -5 17 3 6
0 18 -8 27 -13 15 -16 27 -20 80 -1 6 -4 12 -8 12 -3 0 -6 10 -7 22 -1 11 -6
24 -10 27 -8 6 -11 16 -19 60 -3 13 -9 32 -14 41 -5 10 -6 20 -3 24 3 3 1 6
-6 6 -7 0 -11 6 -8 14 3 8 -1 20 -8 26 -8 7 -12 16 -9 21 3 5 -5 23 -17 41
-13 17 -18 28 -11 24 7 -4 12 -2 12 3 0 6 -5 11 -11 11 -6 0 -9 7 -5 15 3 8 1
15 -4 15 -6 0 -10 9 -10 20 0 11 -5 20 -12 20 -6 0 -8 3 -5 7 4 3 0 17 -9 31
-9 13 -11 21 -5 17 7 -3 3 8 -8 26 -11 18 -18 36 -15 41 3 4 0 8 -6 8 -7 0
-10 6 -7 14 3 8 -1 17 -8 20 -9 3 -12 12 -8 22 4 12 3 15 -5 10 -7 -4 -12 -3
-12 3 0 5 -5 22 -12 38 -6 15 -11 31 -10 36 1 4 -6 7 -16 7 -12 0 -13 3 -4 8
9 6 7 13 -7 29 -11 11 -18 23 -15 26 6 6 -45 99 -59 108 -5 4 -6 12 -3 18 4 6
4 11 -1 11 -4 0 -14 15 -22 33 -8 17 -17 34 -20 37 -10 8 -31 44 -37 63 -4 9
-10 17 -15 17 -5 0 -5 7 -2 17 4 10 2 14 -4 10 -10 -6 -27 27 -24 46 1 5 -3 6
-9 2 -5 -3 -10 1 -10 10 0 9 -4 14 -8 11 -4 -2 -9 5 -9 16 -1 12 -7 26 -14 32
-9 8 -10 7 -4 -3 5 -9 4 -12 -3 -7 -7 4 -12 16 -12 27 0 10 -5 19 -11 19 -5 0
-8 4 -4 9 3 5 -5 17 -17 26 -13 8 -22 16 -20 18 9 6 -12 36 -21 30 -5 -3 -7
-1 -3 5 3 6 -1 18 -10 26 -8 9 -13 16 -9 16 3 0 -6 11 -20 25 -14 14 -25 33
-25 41 0 8 -4 13 -9 9 -5 -3 -12 4 -16 15 -3 11 -11 20 -16 20 -6 0 -8 4 -5 8
3 5 -4 15 -15 22 -10 8 -19 20 -19 27 0 7 -4 13 -9 13 -6 0 -18 13 -27 29 -10
17 -22 27 -28 24 -5 -4 -7 0 -3 10 4 10 -1 18 -14 22 -10 4 -19 11 -19 17 0 9
-23 35 -107 124 -18 19 -33 37 -33 40 0 11 -28 33 -34 27 -3 -4 -6 -1 -6 6 0
16 -156 171 -172 171 -6 0 -9 3 -5 6 6 7 -16 34 -28 34 -4 0 -24 18 -46 40
-22 22 -42 40 -44 40 -3 0 -13 8 -23 18 -41 39 -71 60 -76 55 -3 -4 -6 1 -6
10 0 9 -6 17 -13 17 -7 0 -19 9 -27 20 -8 11 -19 20 -25 20 -6 0 -17 9 -25 19
-7 11 -17 18 -21 15 -4 -2 -15 6 -23 18 -9 12 -19 19 -22 15 -4 -4 -18 5 -31
19 -12 14 -23 21 -23 17 0 -4 -4 -3 -8 3 -9 14 -112 86 -112 79 0 -3 -10 3
-22 15 -12 11 -28 20 -35 20 -8 0 -12 4 -9 9 3 5 -5 12 -19 15 -14 4 -25 11
-25 17 0 6 -4 7 -10 4 -6 -3 -10 -1 -10 4 0 6 -7 11 -15 11 -8 0 -15 5 -15 10
0 6 -6 10 -13 10 -7 0 -22 8 -33 18 -11 10 -25 17 -32 14 -6 -2 -12 4 -12 13
0 11 -5 15 -15 11 -8 -3 -21 1 -29 9 -8 8 -19 15 -25 15 -6 0 -11 4 -11 8 0 4
-10 8 -22 9 -12 1 -26 9 -30 18 -5 8 -13 13 -19 10 -5 -4 -9 -1 -9 5 0 7 -6
10 -12 7 -7 -2 -24 4 -37 14 -13 11 -30 19 -37 19 -8 0 -14 5 -14 11 0 5 -4 8
-10 4 -9 -6 -50 13 -61 29 -4 5 -11 6 -17 2 -6 -3 -15 2 -21 11 -6 10 -11 14
-11 9 0 -5 -7 -3 -15 4 -8 7 -15 9 -15 4 0 -5 -4 -4 -8 1 -8 11 -69 36 -89 38
-7 0 -13 3 -13 7 0 4 -6 7 -14 7 -8 0 -30 7 -50 17 -20 9 -41 14 -46 11 -6 -3
-10 -3 -10 2 0 4 -11 13 -25 20 -19 8 -23 8 -19 0 5 -8 2 -7 -7 1 -7 6 -21 12
-31 12 -10 0 -18 4 -18 9 0 5 -8 8 -17 6 -10 -1 -24 2 -30 8 -7 5 -13 6 -13 2
0 -4 -8 -1 -17 6 -15 12 -16 12 -8 -1 5 -10 1 -8 -13 4 -12 10 -28 16 -36 13
-8 -3 -16 -2 -18 3 -2 4 -19 10 -38 12 -19 1 -37 6 -41 10 -3 4 -21 10 -40 12
-18 3 -34 5 -34 6 0 1 -17 4 -38 5 -21 2 -46 7 -55 11 -9 4 -25 6 -36 5 -10
-2 -16 2 -13 7 4 5 -7 8 -23 7 -17 -1 -30 1 -30 4 0 4 -8 7 -17 8 -70 3 -103
8 -103 17 0 6 -5 4 -10 -4 -7 -12 -10 -12 -10 -1 0 7 -6 11 -15 8 -8 -4 -17
-2 -20 4 -4 5 -10 7 -15 4 -5 -3 -11 -1 -15 4 -4 7 -15 7 -30 1 -15 -6 -25 -6
-25 0 0 5 -12 7 -27 6 -16 -2 -38 0 -50 5 -14 5 -23 5 -23 -1 0 -6 -9 -6 -22
-2 -13 5 -35 7 -50 6 -16 -2 -28 2 -28 7 0 6 -5 7 -12 3 -14 -9 -78 -11 -78
-3 0 4 -14 5 -31 3 -22 -3 -28 0 -23 9 4 6 -2 4 -13 -6 -16 -14 -23 -15 -29
-6 -5 8 -3 10 7 4 8 -5 10 -4 6 0 -12 14 -37 15 -37 2 0 -8 -3 -8 -8 -2 -9 14
-312 14 -312 0 0 -5 -5 -3 -10 5 -7 11 -10 11 -10 2 0 -10 -5 -10 -21 -1 -13
6 -19 7 -15 1z"/>
</g>
</svg>
